<!DOCTYPE svg PUBLIC "-//W3C//DTD SVG 1.1//EN" "http://www.w3.org/Graphics/SVG/1.1/DTD/svg11.dtd">
<svg xmlns="http://www.w3.org/2000/svg" viewBox="0 0 225 225">
<path fill="#fbfbfb" stroke="#fbfbfb" d="M152 37c0 .55.45 1 1 1s1-.45 1-1-.45-1-1-1-1 .45-1 1m-40.23 2.191c-.219.655-2.169 1.266-4.334 1.358-2.165.091-4.611.42-5.436.731-3.763 1.416-8.831 1.728-9.217.568-.258-.774-1.1-.925-2.343-.421-1.92.779-1.92.795.001 1.51 1.545.576 1.039.952-2.487 1.847-3.665.93-4.566.873-5.24-.33-1.357-2.425-2.988-1.683-2.303 1.046.465 1.852.23 2.5-.906 2.5-.842 0-2.44.563-3.549 1.25-1.64 1.016-2.177.993-2.871-.122-.66-1.061-1.502-1.136-3.719-.329-2.455.893-2.551 1.054-.675 1.122 2.168.078 4.428 2.079 2.348 2.079-.593 0-2.757 1.059-4.809 2.354-2.149 1.357-5.028 2.277-6.794 2.172-1.686-.1-3.936.174-5 .611-1.207.494-.275.631 2.478.364 5.22-.508 4.348 1.32-1.03 2.159-4.082.637-5.086 1.34-1.913 1.34 2.058 0 1.89.324-1.583 3.042a390.472 390.472 0 0 0-5.455 4.333C45.185 69.816 42 70.117 42 68.842c0-.454.9-1.387 2-2.074 1.1-.687 2-1.625 2-2.085 0-.965-5.861 3.472-5.945 4.5-.03.375.846.968 1.948 1.318 1.738.552 1.814.825.571 2.067C40.933 74.21 38 74.486 38 73c0-.55-1.013-.981-2.25-.958-1.921.036-1.738.322 1.25 1.958 1.925 1.054 2.992 1.935 2.371 1.958-.62.023-1.688 1.392-2.371 3.042-1.299 3.137-2.555 3.836-3.233 1.801-.246-.738-.659-.525-1.072.551-.402 1.048-.275 1.506.316 1.141.544-.336.989-.183.989.341 0 .876-2.836 2.583-4 2.409-.275-.042-.567 1.049-.649 2.423-.082 1.374-1.085 3.37-2.229 4.435-2.079 1.937-2.079 1.936-1.476-1.082.332-1.66.196-3.019-.304-3.019-.499 0-.993 2.138-1.099 4.75-.105 2.612-1.399 7.61-2.875 11.107-2.539 6.014-2.749 6.234-3.894 4.095-1.06-1.981-1.227-1.442-1.353 4.358-.154 7.097-1.398 11.69-3.166 11.69-.602 0-.942 1.013-.757 2.25.186 1.237-.427 2.951-1.361 3.807-1.312 1.203-1.564 2.56-1.107 5.967.479 3.567.756 4.034 1.45 2.443.588-1.347.675-.864.277 1.533-.32 1.925-.84 5.851-1.156 8.724-.317 2.874-.964 4.984-1.438 4.691-.475-.293-.831.731-.793 2.276.062 2.471.174 2.568.93.809.579-1.347.887-1.51.945-.5.194 3.396 1.555 4.141 4.633 2.536 1.607-.838 3.511-1.526 4.231-1.53.72-.003 1.045-.433.722-.956-.73-1.181 2.912-3.245 3.998-2.265.435.393.479.17.096-.497-.843-1.469 6.961-5.767 7.853-4.324.718 1.162 3.522.212 3.522-1.193 0-.559-.748-.398-1.663.357-1.425 1.176-1.591 1.158-1.162-.128.275-.825 1.464-1.513 2.642-1.529 1.177-.016 2.713-.605 3.412-1.309 1.031-1.038.893-1.149-.729-.587l-2 .694 2-1.603c2.195-1.759 5.988-2.264 5-.666-.34.55-.216 1 .274 1 1.671 0 2.212-1.312 1.095-2.658-.849-1.022-.753-1.342.402-1.342 2.198 0 2.94-2.547 3.203-11 .298-9.574 2.203-16.976 4.395-17.07 1.279-.055 1.213-.234-.303-.828-1.271-.498-1.543-.998-.793-1.462.627-.387.879-1.477.56-2.422-.369-1.096.033-.898 1.112.549 1.618 2.167 3.555 2.23 3.555.115 0-.55-.45-.722-1-.382-.55.34-1.034.029-1.077-.691-.042-.72-.227-2.096-.411-3.059-.21-1.095.287-1.756 1.326-1.765 1.448-.014 1.469-.152.162-1.076-1.129-.799-1.191-1.187-.25-1.568.688-.279 1.264-1.258 1.282-2.174.017-.917.739-2.567 1.603-3.667 1.535-1.954 1.555-1.945.861.375-.486 1.625-.36 2.159.397 1.691.609-.376 1.107-2.034 1.107-3.684 0-1.928.393-2.757 1.101-2.32.626.387.852 1.922.525 3.559-.718 3.59 1.095 3.837 1.99.272.433-1.724.188-2.896-.722-3.459-1.097-.677-1.124-1.104-.136-2.092.683-.683 1.228-1.715 1.21-2.292-.017-.578-.688-.183-1.489.877-.802 1.06-1.708 1.677-2.014 1.372-.305-.306.815-1.926 2.49-3.6 1.675-1.675 3.045-3.475 3.045-4 0-.525.7-1.535 1.556-2.246 1.265-1.049 1.499-1.05 1.25-.005-.168.707.507 1.422 1.5 1.589 1.39.233 1.555 0 .715-1.012-1.923-2.316-.469-4.736 6.024-10.025l2.455-2-2 2.5c-1.1 1.375-2.437 2.813-2.971 3.196-.534.382-.649 1.017-.256 1.41 1.055 1.056 4.786-3.65 5.424-6.842.547-2.733 1.495-3.172 6.053-2.803 2.389.193 3.104-1.45 1-2.299-.879-.355-.901-.528-.071-.583.648-.043 1.853.596 2.678 1.421 1.957 1.957 3.015 1.913 2.246-.093-.406-1.057.051-1.765 1.36-2.108 1.084-.283 2.243-1.374 2.577-2.424.626-1.974 8.46-6.615 8.46-5.012 0 .497-.993 1.163-2.206 1.481-1.214.317-1.888.895-1.499 1.285.389.389 1.828.108 3.198-.625 1.947-1.042 3.047-1.079 5.046-.168 3.209 1.462 3.13 1.47 3.843-.388.327-.854.196-1.306-.291-1.004-1.247.771-7.159-.525-6.59-1.445.257-.417 1.375-.995 2.485-1.285 1.109-.29 1.765-.119 1.456.379-.308.499.142.907.999.907S112 51.399 112 50.665c0-3.375 34.221-4.393 42.5-1.264 2.2.831 3.438 1.531 2.75 1.555-.687.024-1.25.449-1.25.945 0 .495 1.988.715 4.417.488 3.127-.292 4.878.049 6 1.171.871.87 1.583 1.337 1.583 1.036 0-.3 1.09-.132 2.423.375 2.806 1.067 4.406-.296 5.147-4.384.378-2.084.076-2.587-1.55-2.587-2.484 0-2.627 1.547-.27 2.92 1.08.629 1.249 1.031.441 1.05-.72.016-1.031.48-.691 1.03 1.044 1.689-1.169 1.106-2.628-.692-1.181-1.457-1.163-1.585.128-.926.894.457.799.191-.234-.657-.954-.782-1.404-1.788-1-2.234.403-.446.164-.483-.532-.082-.697.401-1.008 1.148-.691 1.66.862 1.395-.784 1.064-2.984-.601-1.068-.807-2.551-1.468-3.296-1.468-.744 0-2.479-1.125-3.854-2.5s-2.956-2.5-3.513-2.5c-.558 0-.736-.45-.396-1 .97-1.569-.654-1.171-2.671.655-1.703 1.541-1.959 1.538-3.711-.049-1.292-1.169-2.708-1.496-4.513-1.043-1.447.363-3.188.245-3.868-.264-.68-.508-5.737-1.044-11.237-1.191-5.5-.148-10.15-.682-10.333-1.188-.49-1.352-5.933-1.122-6.397.271M156 39.5c0 .825.45 1.5 1 1.5s1-.675 1-1.5-.45-1.5-1-1.5-1 .675-1 1.5M86.5 41c.34.55.816 1 1.059 1s.441-.45.441-1-.477-1-1.059-1-.781.45-.441 1m7.5.019c0 .605 1.117.751 2.75.359 3.926-.941 4.058-1.378.417-1.378-1.742 0-3.167.459-3.167 1.019m-10 1.935c.825.559 2.362 1.022 3.417 1.031 2.558.02 1.76-.552-1.917-1.375-2.191-.49-2.595-.397-1.5.344m72.083-.671c.23.156 1.204.886 2.167 1.622 1.498 1.147 1.75 1.106 1.75-.283 0-.997-.835-1.622-2.167-1.622-1.191 0-1.979.127-1.75.283M153.5 45c.34.55.816 1 1.059 1s.441-.45.441-1-.477-1-1.059-1-.781.45-.441 1M56 49c0 .55.9 1 2 1s2-.45 2-1-.9-1-2-1-2 .45-2 1m8 3.441c0 .857.45 1.559 1 1.559s1-.423 1-.941-.45-1.219-1-1.559c-.55-.34-1 .084-1 .941m88 .59c0 .533.675.969 1.5.969s1.5-.177 1.5-.393c0-.216-.675-.652-1.5-.969-.825-.316-1.5-.139-1.5.393m12 1.41c0 .857.45 1.559 1 1.559s1-.423 1-.941-.45-1.219-1-1.559c-.55-.34-1 .084-1 .941m-11.25 1.221c.688.278 1.813.278 2.5 0 .688-.277.125-.504-1.25-.504s-1.937.227-1.25.504m-63.177 3.233c-1.529.6-1.624.872-.458 1.319.808.31 2.323-.061 3.368-.825 2.106-1.54.469-1.817-2.91-.494m-41.258 4.483c.291.758.001 1.936-.643 2.618-.858.907-.595.892.978-.057 2.08-1.253 2.173-3.939.136-3.939-.55 0-.762.62-.471 1.378m158.89 1.997c.707.756 1.847 1.159 2.534.895 1.789-.687.507-2.27-1.837-2.27-1.637 0-1.758.239-.697 1.375m5.795-.448c0 .509-1.358 1.604-3.017 2.432-1.659.827-2.804 1.16-2.544.739.26-.42-.202-.765-1.026-.765-.838 0-1.274.588-.987 1.334.621 1.62-.612 1.747-2.139.22-1.26-1.26-3.295-.376-3.272 1.422.011.838.26.806.839-.106.664-1.048 1.051-1.022 2.01.133 1.444 1.74-1.043 3.059-3.999 2.121-1.346-.427-1.699-.188-1.291.876.686 1.788-.847 2.883-2.921 2.087-.901-.345-1.278-1.233-.92-2.167.404-1.051.212-1.337-.571-.853-.648.4-.979 1.824-.736 3.164.349 1.926.017 2.436-1.586 2.436-1.162 0-2.243.824-2.532 1.931-.278 1.062-1.159 2.182-1.958 2.488-.8.307-1.196.141-.882-.368.317-.512-.526-.727-1.884-.481-1.351.245-2.741-.015-3.089-.578-.724-1.172-2.495-.373-2.495 1.126 0 .55.412.746.915.435.503-.311 1.104 0 1.337.691.331.984.783.959 2.085-.116.915-.755 1.663-.916 1.663-.357 0 1.256-2.859 2.434-4.079 1.68-.494-.305-.648.098-.341.896.306.798.076 1.748-.512 2.111-.625.386-1.068-.193-1.068-1.399 0-1.132-.41-2.059-.912-2.059s-.686 1.237-.41 2.75c2.178 11.934.693 25.25-2.815 25.25-1.024 0-1.863.648-1.863 1.441 0 1.943 1.694 2.882 2.375 1.315.3-.691.275.094-.055 1.744-.707 3.529-1.419 4.489-2.04 2.75-.609-1.706-2.28-1.584-2.28.167 0 .779-.562 1.643-1.25 1.921-1 .403-1 .52 0 .583.688.043 1.25.781 1.25 1.638 0 .857-.404 1.31-.897 1.005-.493-.305-.823 1.011-.733 2.924.099 2.116-.566 4.368-1.697 5.746-1.344 1.638-1.704 1.781-1.297.516.308-.963.125-1.75-.407-1.75-.533 0-.969.638-.969 1.418 0 .78-.301 2.204-.67 3.164-.51 1.33-.332 1.539.75.875 1.039-.638.972-.213-.25 1.586-.918 1.351-2.155 2.345-2.75 2.207-.594-.137-1.08.645-1.08 1.738 0 1.439-.591 1.923-2.14 1.75-1.177-.131-2.375.437-2.662 1.262-.449 1.287-.287 1.305 1.139.128 2.949-2.435 1.739.254-1.967 4.372-1.98 2.2-3.073 3.248-2.428 2.329 1.003-1.43.871-1.593-.913-1.126-1.468.384-1.915 1.082-1.509 2.36.395 1.243-.148 2.188-1.722 2.999-1.898.977-2.08.953-1.048-.14 1.713-1.812 1.572-2.679-.626-3.856-1.699-.909-1.872-.606-1.834 3.215.035 3.498-.26 4.165-1.724 3.902-.972-.174-1.5.114-1.175.641.326.526-.513 1.681-1.864 2.567-3.414 2.236-4.566 1.979-1.542-.345 1.367-1.05 2.144-2.25 1.727-2.667-.417-.417-1.448.227-2.292 1.431-.866 1.237-2.596 2.19-3.977 2.19-1.344 0-2.443.48-2.443 1.067 0 .634.864.793 2.125.393 3.056-.97 1.477 1.177-2.303 3.132-2.194 1.135-3.357 1.273-4.137.493-.597-.597-1.558-1.078-2.135-1.07-.578.009-.375.452.45.985 1.272.822 1.225.972-.309.985-.995.008-1.531.465-1.191 1.015 1.047 1.694-.694 1.104-2.214-.75-.789-.963-1.149-1.187-.801-.5.387.765-.07 1.277-1.176 1.32-1.64.064-1.627.142.137.832 1.803.706 1.766.81-.5 1.416-1.345.36-3.421.661-4.613.668-1.191.008-2.316.407-2.5.887-.183.48-2.681 1.119-5.55 1.421-2.87.301-5.733.866-6.362 1.255-.63.389-1.544.087-2.033-.671-.753-1.168-1.025-1.165-1.789.02-.693 1.077-2.359 1.248-7.25.745-3.492-.359-8.824-.902-11.849-1.206-3.436-.346-6.063-1.207-7-2.294-2.135-2.478-5.026-3.367-6.627-2.038-.962.799-1.373.813-1.373.049 0-.6-.653-.84-1.452-.534-2.402.922-3.906-.638-1.976-2.049 1.532-1.12 1.538-1.238.06-1.238-.897 0-1.632.384-1.632.853s-1.125.57-2.5.225c-1.648-.414-2.5-.21-2.5.597 0 .772-.833 1.015-2.25.658-2.173-.547-2.184-.517-.309.884 1.873 1.399 1.875 1.45.059 1.45s-1.814.051.059 1.468c1.067.808 2.391 1.476 2.941 1.485.55.009.325-.461-.5-1.044-1.135-.803-1.194-1.185-.244-1.571.691-.28 1.002-.92.691-1.423-.311-.503-.088-.915.494-.915s1.059.702 1.059 1.559.446 1.283.992.946c.546-.337 1.783-.105 2.75.516 1.598 1.027 1.579 1.073-.212.502-1.083-.346-1.605-.267-1.159.174.445.442 1.557.849 2.469.905 4.682.288 5.16.51 5.16 2.398 0 1.333.667 2 2 2 1.1 0 2-.54 2-1.2 0-.933.267-.933 1.2 0 .66.66 2.122 1.252 3.25 1.316 1.687.095 1.74.197.3.573-.963.252-1.75.875-1.75 1.384 0 1.162.267 1.156 3.492-.07 1.442-.548 2.374-.595 2.071-.105-.303.491.197 1.18 1.113 1.531.915.351 1.945.184 2.288-.371.767-1.241 8.036.559 8.036 1.989 0 .524-1.35.953-3 .953s-3 .45-3 1c0 1.848 5.515 1.061 7-1 1.443-2.002 5-2.789 5-1.107 0 1.543 3.058 2.146 5.166 1.018 2.518-1.348 8.005-.264 5.782 1.142-1.055.668-.589.921 1.719.932 1.741.008 3.367.578 3.613 1.265.245.688.805.915 1.243.506.439-.409-.287-1.716-1.613-2.906-1.946-1.746-2.041-2.029-.49-1.472 1.056.379 2.2.237 2.543-.317.342-.554 4.203-1.156 8.579-1.338 4.377-.181 8.941-.868 10.142-1.526 2.759-1.512 3.634-1.52 2.711-.027-.498.806-.159.953 1.094.473.999-.384 3.353-.19 5.231.429 3.093 1.021 6.479.261 3.53-.792-2.144-.766-1.391-2.158 2.593-4.795 2.273-1.504 4.519-2.283 5.5-1.907.914.351 1.657.15 1.657-.446 0-.748.791-.782 2.557-.11 1.893.719 2.37.669 1.836-.195-.488-.79-.167-.954.995-.508 1.056.405 1.471.262 1.08-.371-.35-.566-1.555-.738-2.677-.382-1.384.44-1.816.284-1.342-.483.741-1.199 4.209-1.06 6.301.251.688.431 1.25.34 1.25-.204 0-.543.748-1.735 1.662-2.649 1.294-1.295 1.381-1.836.393-2.447-1.653-1.021.227-2.247 2.254-1.469.819.314 1.786.091 2.149-.497.363-.587.157-1.068-.458-1.068s-.84-.45-.5-1c.934-1.511 2.5-1.198 2.5.5 0 1.348 3.35 5.5 4.438 5.5.241 0 .374-.851.295-1.89-.08-1.069-.686-1.682-1.394-1.41-.952.366-1.033-.279-.339-2.7.761-2.652.662-3.084-.596-2.602-.855.329-1.243.151-.897-.409.336-.544 1.458-.989 2.493-.989s2.157-.445 2.493-.989c.362-.585-.123-.734-1.191-.365-1.536.531-1.508.394.192-.926 1.954-1.519 4.065-.433 2.881 1.482-.271.439.659.798 2.066.798 1.407 0 2.559-.477 2.559-1.059s-.526-.734-1.17-.336c-.783.484-.962.181-.541-.915.383-.999-.038-2.025-1.081-2.633-1.499-.874-1.432-1 .542-1.027 1.55-.021 2.25-.634 2.25-1.971 0-1.068.526-2.266 1.17-2.664.779-.482.963-.184.551.89-.415 1.08-.183 1.446.701 1.107.726-.279 2.075.247 2.997 1.17.922.922 1.979 1.373 2.35 1.003.37-.371.015-1.081-.79-1.578-1.164-.72-1.209-1.157-.221-2.145 1.75-1.75 1.543-3.842-.38-3.842-1.259 0-1.369.306-.488 1.367.866 1.044.755 1.683-.469 2.699-1.425 1.182-1.549.982-1.11-1.8.591-3.753 3.738-8.37 5.326-7.814.663.232.946-.329.68-1.347-.251-.959.215-2.301 1.035-2.982 1.265-1.05 1.401-.888.896 1.07-.531 2.059-.415 2.159 1.079.935 1.322-1.085 1.673-1.103 1.673-.084 0 .709.286 1.003.635.654.35-.35-.1-1.759-1-3.132-1.95-2.976-2.037-3.65-.43-3.316 1.136.236 1.369-.274 1.67-3.656.124-1.394 4.125-1.1 4.125.302 0 .364-.9 1.311-2 2.104-1.1.793-2 2.049-2 2.792 0 1.811 2.914 4.642 3.798 3.69.386-.416.14-.957-.548-1.202-1.43-.511-1.723-4.28-.333-4.28.504 0 1.117.563 1.363 1.25.245.688.832.888 1.304.446.472-.443.196-1.23-.613-1.75-1.016-.654-1.131-1.178-.371-1.696 2.772-1.89 3.39-4.949 1.368-6.779-2.192-1.984-2.518-1.367-.887 1.68 1.341 2.507.492 3.565-1.368 1.705-1.405-1.406-.115-8.144 1.454-7.591.366.129 1.004-.103 1.416-.515.413-.412.2-.75-.473-.75-.865 0-.767-.652.333-2.223.856-1.222 1.571-3.134 1.589-4.25.017-1.115.656-2.851 1.42-3.858 1.317-1.739 1.41-1.714 1.832.5.53 2.782 1.021-2.003.941-9.169-.028-2.475.173-3.937.446-3.25.272.688 1.246 1.243 2.162 1.235 1.193-.011 1.315-.239.43-.801-.916-.582-.981-1.68-.25-4.229 1.198-4.177 1.195-3.955.053-3.955-.513 0-1.122 1.013-1.354 2.25-.231 1.237-.206 0 .055-2.75s.983-5.372 1.604-5.826c.823-.603.791-.964-.121-1.333-1.344-.546-1.764-8.494-.514-9.743 1.382-1.383 1.103-6.598-.353-6.598-.761 0-1.383.417-1.383.927M137.5 66c-.34.55-.141 1 .441 1S139 66.55 139 66s-.198-1-.441-1-.719.45-1.059 1m5.68-.191c-.099.72-.599 1.05-1.111.734-.512-.317-1.213-.118-1.559.441-.345.559.186 1.05 1.181 1.092.995.042-1.116.941-4.691 1.997-7.078 2.09-25 2.755-25 .927 0-.55-1.35-1-3-1s-3 .41-3 .912-1.912 1.22-4.25 1.597c-2.338.376-6.14 1.722-8.45 2.989-2.309 1.268-4.373 2.012-4.586 1.653-.212-.358-.254-.1-.092.573.162.673-.3 1.573-1.026 2-.727.427-2.444 2.902-3.817 5.501-1.372 2.599-2.714 4.507-2.982 4.239-.267-.268-.444 3.53-.392 8.439.052 4.909.276 8.746.496 8.527.483-.48 3.022 2.732 3.067 3.879.018.445-.418.531-.968.191s-1-.115-1 .5-.447.842-.993.504c-1.362-.842-.853 4.379.54 5.535.771.64.969.023.663-2.063-.468-3.185 1.305-4.061 3.59-1.776 1.824 1.824 1.433 3.237-.463 1.672-1.413-1.166-1.593-1.162-1.198.032.255.773 1.476 1.779 2.713 2.237 1.546.572 2.039.491 1.576-.258-.371-.6.596-.258 2.149.759 2.505 1.642 2.604 1.889.873 2.201-2.912.524-3.855 1.835-1.251 1.74 1.62-.059 2.269.486 2.283 1.917.013 1.436.582 1.909 2.018 1.678 1.1-.177 3.686-.402 5.747-.5 2.061-.098 3.748-.516 3.75-.928.004-1.041 6.378-.941 9.188.144 11.576 4.472 8.016 17.106-4.821 17.106-3.541 0-5.254-.368-4.839-1.04.407-.659-.212-.833-1.691-.474-1.684.408-3.308-.276-5.834-2.458-1.925-1.663-3.73-3.024-4.01-3.026-.953-.004-5.99 5.074-5.99 6.038a.97.97 0 0 1-.975.96c-.627 0-.636-.893-.025-2.5.702-1.846.621-2.5-.308-2.5-.739 0-1.202 1.135-1.121 2.75.181 3.647-.484 5.25-2.178 5.25-.766 0-1.393.9-1.393 2s.47 2 1.044 2c.574 0 .911.741.75 1.646-.162.906.381 1.84 1.206 2.076 1.333.382 1.333.312 0-.631-.825-.583-1.05-1.049-.5-1.035.55.014 2.558 1.357 4.462 2.985 1.904 1.627 4.24 2.959 5.191 2.959.951 0 2.048.516 2.437 1.146.501.81-.09.945-2.016.462-2.197-.551-2.489-.435-1.512.604.666.708 3.062 1.355 5.325 1.436 3.133.112 3.517-.02 1.613-.558-1.375-.388 3.844-.61 11.598-.494 7.754.115 14.729-.196 15.5-.692.918-.59.193-.729-2.098-.401-2.845.406-3.031.34-.994-.35 6.212-2.105 15.994-9.677 15.994-12.379 0-.49.408-.64.907-.332.498.309.718-.452.489-1.691-.23-1.238-.151-1.688.176-1.001.819 1.721 2.494 1.585 1.828-.149-.295-.769-.075-1.684.488-2.032.564-.348.743-1.367.398-2.265-.378-.985-.219-1.381.4-.998.648.401.827-.365.485-2.086l-.54-2.72-.638 2.5c-.526 2.062-.774 1.624-1.414-2.5-.427-2.75-1.198-5.787-1.713-6.75-.573-1.07-.576-1.75-.008-1.75.51 0 1.15-.579 1.421-1.286.291-.756-.253-1.285-1.319-1.285-.997 0-1.552.423-1.232.94.32.517.061.619-.573.226-.635-.392-1.155-1.289-1.155-1.994 0-.704-1.186-1.82-2.636-2.481-2.516-1.146-2.55-1.263-.761-2.572 1.031-.754 2.287-1.116 2.79-.805.504.311.658.148.343-.362-.316-.51.467-3.086 1.738-5.725 1.272-2.638 2.506-4.215 2.744-3.502.249.747.677.354 1.013-.93.32-1.223.174-2.224-.325-2.224-.498 0-.874-1.237-.836-2.75.063-2.437.168-2.522.93-.75.686 1.596.874 1.663.93.333.038-.916.633-1.916 1.32-2.221.839-.372.757-.524-.25-.464-3.109.185-4-.193-4-1.698 0-.852-.687-2.877-1.526-4.5-1.482-2.867-1.458-2.95.848-2.95 1.45 0 2.822-.874 3.53-2.25l1.159-2.25-.613 2.375c-.413 1.602-.252 2.153.495 1.691.609-.376 1.107-2.034 1.107-3.684 0-1.662-.428-2.735-.96-2.407-.585.362-.562-.547.059-2.33.561-1.608.849-5.111.641-7.784-.209-2.674-.461-4.272-.56-3.552M96 69c0 .55 1.013.993 2.25.985 1.819-.013 1.963-.201.75-.985-1.939-1.253-3-1.253-3 0m122 2c0 .55.45 1 1 1s1-.45 1-1-.45-1-1-1-1 .45-1 1m-139.417.866c-.431.697-.513 1.537-.183 1.867.895.895 1.871-.421 1.387-1.871-.338-1.016-.574-1.016-1.204.004m14.167.796c.688.278 1.813.278 2.5 0 .688-.277.125-.504-1.25-.504s-1.937.227-1.25.504M195 74c0 .55.477 1 1.059 1s.781-.45.441-1-.816-1-1.059-1-.441.45-.441 1m27 1c0 .55.45 1 1 1s1-.45 1-1-.45-1-1-1-1 .45-1 1M34 77c0 .55.675 1 1.5 1s1.5-.45 1.5-1-.675-1-1.5-1-1.5.45-1.5 1m47 4.059c0 .582.45.781 1 .441s1-.816 1-1.059S82.55 80 82 80s-1 .477-1 1.059m2.094 1.635c-.926 2.032-1.438 2.367-2.066 1.351-.564-.912-.786-.489-.682 1.301.085 1.459.23 2.653.322 2.653.568.003 4.477-7.188 4.109-7.556-.249-.248-1.006.764-1.683 2.251m21.61 7.953c-2.373 1.243-3.031 2.432-4.349 7.853-.407 1.676-.301 1.757.658.5.916-1.202 1.047-.906.658 1.489-.62 3.819.745 6.338 4.129 7.625 2.912 1.107 9.577.305 8.739-1.051-.284-.46.237-1.45 1.159-2.2 1.486-1.208 1.591-1.135.927.637-.691 1.846-.589 1.829 1.313-.208 2.146-2.299 3.095-11.049 1.062-9.792-.55.34-1-.335-1-1.5s-.446-1.842-.992-1.505c-.546.337-1.783.105-2.75-.516-1.662-1.069-1.663-1.1-.008-.586.963.299 1.75.108 1.75-.424 0-1.769-8.094-1.999-11.296-.322M102.6 93.6c-.886 2.309-.701 3.108.339 1.464.753-1.19 1.178-1.211 2.485-.127.999.829 1.576.91 1.576.221 0-1.997-3.726-3.315-4.4-1.558m10.15 1.562C110.098 96.131 108.946 98 111 98c.55 0 1-.363 1-.807 0-.444 1.237-1.296 2.75-1.894 3.468-1.37 1.707-1.491-2-.137M21 97.5c0 .825.436 1.5.969 1.5.532 0 .709-.675.393-1.5-.317-.825-.753-1.5-.969-1.5-.216 0-.393.675-.393 1.5m-3.667 5.095c0 .773.6 1.405 1.334 1.405.733 0 1.333-.402 1.333-.893s-.6-1.123-1.333-1.405c-.734-.281-1.334.121-1.334.893m85.251 1.764c.347.902.995 1.641 1.441 1.641.446 0 1.448.244 2.227.543.818.314 1.415-.067 1.415-.905 0-.802-.6-1.217-1.346-.931-.741.284-2.026-.047-2.857-.737-1.257-1.043-1.404-.978-.88.389m9.029.824c.289.467.944.591 1.456.274 1.308-.808 1.161-1.124-.525-1.124-.801 0-1.22.383-.931.85M141.5 107c-.853 1.65-2.016 3-2.585 3-.568 0-.753.453-.41 1.008.786 1.272 2.591-.542 4.235-4.258 1.637-3.698.705-3.511-1.24.25m-123.421-.417c.048 1.165.285 1.402.604.605.289-.722.253-1.585-.079-1.917-.332-.332-.568.258-.525 1.312M55.5 111c-.34.55.084 1 .941 1S58 111.55 58 111s-.423-1-.941-1-1.219.45-1.559 1m85.068 12.683c-.431 1.124-.049 2.224 1.055 3.03 2.364 1.729 2.674 1.088 1.017-2.105-1.209-2.331-1.485-2.454-2.072-.925m-34.818.979c.688.278 1.813.278 2.5 0 .688-.277.125-.504-1.25-.504s-1.937.227-1.25.504m-17.291 1.405c-1.026 1.66-.105 1.89 1.33.332.71-.769.849-1.399.309-1.399-.539 0-1.277.48-1.639 1.067m23.095-.099c-1.798.643-1.763.744.456 1.324 2.774.726 3.148.566 2.186-.934-.386-.602-1.563-.775-2.642-.39m-16.016.971c-.319.516-1.471.767-2.559.557-1.088-.21-1.979.091-1.979.668 0 .578.725.772 1.611.432 1.135-.436 1.446-.187 1.051.842-.376.98-.083 1.277.889.904.797-.306 1.449-1.145 1.449-1.866 0-.72.563-1.536 1.25-1.814.901-.363.918-.526.059-.583-.655-.043-1.452.343-1.771.86M116 128.441c0 .857.45 1.559 1 1.559s1-.423 1-.941-.45-1.219-1-1.559c-.55-.34-1 .084-1 .941M161.5 131c-.34.55-.141 1 .441 1s1.059-.45 1.059-1-.198-1-.441-1-.719.45-1.059 1m-149.833.667c-.367.366-.653 1.379-.637 2.25.025 1.3.221 1.257 1.092-.242 1.077-1.852.765-3.228-.455-2.008M89 133.5c-.718.865-.815 1.5-.229 1.5.558 0 1.274-.675 1.591-1.5.316-.825.419-1.5.229-1.5-.19 0-.906.675-1.591 1.5m5 .5c0 .55.477 1 1.059 1s.781-.45.441-1-.816-1-1.059-1-.441.45-.441 1m-13.436 3.293c.376.986.935 1.541 1.243 1.233.308-.307.001-1.114-.683-1.793-.988-.98-1.102-.865-.56.56M102.5 137c.34.55.816 1 1.059 1s.441-.45.441-1-.477-1-1.059-1-.781.45-.441 1m10.189-.306c-.955 1.546 2.415 2.623 3.728 1.192.806-.879.652-1.029-.602-.589-.927.325-1.857.076-2.067-.554-.273-.818-.575-.832-1.059-.049m-5.939.968c.688.278 1.813.278 2.5 0 .688-.277.125-.504-1.25-.504s-1.937.227-1.25.504m33.329.921c.048 1.165.285 1.402.604.605.289-.722.253-1.585-.079-1.917-.332-.332-.568.258-.525 1.312m19.921-.701c0 .55.45 1.278 1 1.618.55.34 1 .168 1-.382s-.45-1.278-1-1.618c-.55-.34-1-.168-1 .382m-113.303 1.511c-.409 1.041-.508 2.129-.221 2.417.913.912 1.715-.583 1.333-2.482-.35-1.74-.404-1.737-1.112.065M80 140.941c0 .518.445 1.216.989 1.552.566.35.734-.051.393-.941-.665-1.732-1.382-2.049-1.382-.611M191.5 143c-.357.577.57.994 2.191.985 2.181-.012 2.474-.232 1.309-.985-1.921-1.242-2.733-1.242-3.5 0m8.5 0c0 .55.45 1 1 1s1-.45 1-1-.45-1-1-1-1 .45-1 1M8.232 147c0 1.925.206 2.713.457 1.75.252-.963.252-2.537 0-3.5-.251-.963-.457-.175-.457 1.75M148 147c0 .55.45 1 1 1s1-.45 1-1-.45-1-1-1-1 .45-1 1m-119.918 3.41-2.418 1.34h2.502c1.455 0 2.501-.575 2.501-1.375 0-.756-.038-1.359-.084-1.34-.045.02-1.171.639-2.501 1.375M82 154c0 .55.702 1 1.559 1s1.281-.45.941-1c-.34-.55-1.041-1-1.559-1s-.941.45-.941 1m104 1c0 .55.45 1 1 1s1-.45 1-1-.45-1-1-1-1 .45-1 1m-164.187.683c.721.289 1.584.253 1.916-.079.332-.332-.258-.568-1.312-.525-1.165.048-1.402.285-.604.604m107 0c.721.289 1.584.253 1.916-.079.332-.332-.258-.568-1.312-.525-1.165.048-1.402.285-.604.604m-42 1c.721.289 1.584.253 1.916-.079.332-.332-.258-.568-1.312-.525-1.165.048-1.402.285-.604.604M190 159c0 .55.45 1 1 1s1-.45 1-1-.45-1-1-1-1 .45-1 1m-61.921 4.583c.048 1.165.285 1.402.604.605.289-.722.253-1.585-.079-1.917-.332-.332-.568.258-.525 1.312M113 168.986c1.003.657 1.086.988.25.999-.687.008-1.25.76-1.25 1.67 0 1.54.127 1.54 1.829 0 1.006-.91 2.656-1.655 3.666-1.655 2.668 0 1.534-.616-2.495-1.355-2.462-.452-3.055-.351-2 .341m-51.139.907c1.241.786 5.139.4 5.139-.51 0-.21-1.463-.376-3.25-.368-2.21.011-2.814.292-1.889.878M164 173c0 .55 1.012.993 2.25.985 1.819-.013 1.963-.201.75-.985-1.939-1.253-3-1.253-3 0m-27 7c-1.375.44-1.974.845-1.332.9.643.055 1.822.351 2.621.657.799.307 1.722-.143 2.051-1 .652-1.7.374-1.747-3.34-.557m7 .059c0 .582.45.781 1 .441s1-.816 1-1.059-.45-.441-1-.441-1 .477-1 1.059m-76.333.608c-1.036 1.036-.791 2.071.619 2.612.767.295 1.285-.266 1.285-1.393 0-1.934-.725-2.399-1.904-1.219m-3.597 2.583c-.038 1.512.38 2.75.93 2.75 1.174 0 1.174-.769 0-3.5-.762-1.772-.867-1.687-.93.75M90 189c0 .55.862 1 1.917 1 1.054 0 2.117.563 2.363 1.25.245.688.786.934 1.202.548 1.012-.94-1.931-3.798-3.911-3.798-.864 0-1.571.45-1.571 1m42 0c0 .55.45 1 1 1s1-.45 1-1-.45-1-1-1-1 .45-1 1m-32.362 1.5c.644 1.678 1.958 1.962 2.797.605.305-.493-.156-1.168-1.023-1.5-2.252-.864-2.417-.781-1.774.895M64 191c0 .55.45 1 1 1s1-.45 1-1-.45-1-1-1-1 .45-1 1m52 0c0 .55.45 1 1 1s1-.45 1-1-.45-1-1-1-1 .45-1 1" fill-rule="evenodd"/>
<path fill="#eeeee6" stroke="#eeeee6" d="M106.051 41.088c-3.547.459-7.597 1.259-9 1.778-1.403.518-4.801 1.517-7.551 2.219-10.893 2.781-17.962 6.379-34.5 17.564C46.311 68.525 27.967 90.933 22.785 102c-7.57 16.168-11.705 34.176-11.768 51.25-.02 5.542 1.332 6.078 6.295 2.5 1.716-1.238 8.761-5.668 15.654-9.845L45.5 138.31l.626-7.905c4.887-61.721 64.047-99.707 120.814-77.574 2.993 1.167 5.594 1.968 5.782 1.781 1.088-1.088-12.804-7.247-21.722-9.63-2.475-.661-5.4-1.594-6.5-2.073-5.68-2.472-25.984-3.434-38.449-1.821M209 68.582c-1.925 1.367-9.165 5.865-16.089 9.996l-12.589 7.512-1.13 10.347c-2.805 25.684-14.548 47.431-34.186 63.309-23.282 18.824-53.118 23.322-84.599 12.754-4.217-1.415-7.868-2.373-8.112-2.128-.245.245.601.765 1.88 1.155s3 1.254 3.825 1.92c2.423 1.955 12.321 5.335 23.804 8.128 37.925 9.225 81.437-5.715 106.196-36.463 1.925-2.391 3.95-4.874 4.5-5.518.55-.644 1.65-2.279 2.444-3.633a856.272 856.272 0 0 1 4.75-7.901C208.137 114.162 214 92.345 214 74.824c0-9.746-.023-9.774-5-6.242m-71 2.122c-3.214 1.075-9.359 1.548-21.5 1.655-16.838.147-17.051.177-22.348 3.107-14.782 8.177-17.502 27.315-5.577 39.24 4.85 4.849 5.26 5.597 4.364 7.953-.965 2.539-.911 2.584 2.286 1.908 16.898-3.574 24.975-1.03 24.975 7.866 0 9.654-14.931 12.586-24.997 4.908l-3.417-2.606-5.536 5.537c-6.513 6.512-6.441 7.351 1.028 12.129 16.806 10.751 42.579 6.502 50.396-8.308 4.463-8.456 2.169-21.192-4.737-26.297l-2.83-2.093 2.359-1.855c6.02-4.735 8.365-16.833 4.669-24.083l-1.865-3.658 2.615-.304c2.526-.293 5.625-8.046 6.017-15.053.114-2.032.032-2.032-5.902-.046m-32.654 18.984c-8.29 4.162-7.618 15.143 1.154 18.859 9.978 4.227 18.663-8.974 10.886-16.547-3.649-3.553-7.93-4.375-12.04-2.312" fill-rule="evenodd"/>
<path fill="#f76a09" stroke="#f76a09" d="M109.5 41.596c-17.379 2.531-23.849 4.413-36.497 10.618-4.674 2.293-8.949 4.545-9.5 5.005-.552.46-3.703 2.888-7.003 5.395-28.064 21.325-43.451 51.782-44.407 87.898l-.204 7.72 3.805-2.298a269.18 269.18 0 0 0 7.806-4.947c2.2-1.458 4.675-2.95 5.5-3.316.825-.366 4.875-2.848 9-5.515l7.5-4.851.605-8.402c.712-9.909 2.485-19.029 4.645-23.903 4.014-9.058 7.609-16.546 8.161-17 .334-.275 1.777-2.306 3.206-4.514C71.958 68.285 92.86 53.349 111 48.554c13.072-3.456 35.708-2.996 49.754 1.01 1.773.506-.716-.738-6.378-3.187-8.062-3.487-34.453-6.298-44.876-4.781m54.05 9.292c.522.488 2.075 1.182 3.45 1.541l2.5.654-2.5-1.506c-2.786-1.679-4.977-2.117-3.45-.689m41.95 20.643c-3.85 2.446-8.35 5.184-10 6.085-1.65.902-5.762 3.412-9.137 5.578l-6.137 3.939-.691 8.683c-.726 9.137-3.78 22.91-6.023 27.166-.73 1.385-2.522 5.095-3.982 8.246-9.636 20.787-33.659 39.849-57.03 45.254-14.424 3.336-26.976 3.07-46.5-.985-1.375-.286-1.825-.225-1 .135 1.821.795 6.309 2.635 7 2.871a51.52 51.52 0 0 1 2 .79c12.141 5.024 48.893 5.158 60.5.221 1.65-.701 5.925-2.279 9.5-3.505 6.489-2.226 16.38-7.312 18.756-9.645.691-.678 2.153-1.518 3.25-1.866 1.097-.348 1.994-1.022 1.994-1.498s.86-1.138 1.91-1.471c5.423-1.722 32.09-33.759 32.09-38.553 0-.504 1.068-3.293 2.374-6.196 5.587-12.424 8.768-26.943 8.989-41.029.075-4.812-.088-8.73-.363-8.707-.275.022-3.65 2.042-7.5 4.487m-70 .022c-3.758.844-11.231 1.279-20 1.165-18.057-.234-24.662 2.336-30.57 11.896-6.239 10.094-2.733 27.407 6.557 32.379 2.314 1.239 2.627 1.919 2.171 4.727-.293 1.804-.392 3.28-.221 3.28s2.225-.675 4.563-1.5c11.748-4.145 23.045.623 22.985 9.7-.063 9.427-18.983 12.251-26.39 3.938-2.572-2.886-2.437-2.948-8.453 3.887l-5.303 6.024 2.33 2.036c13.867 12.111 40.287 11.547 51.105-1.092 7.545-8.815 7.263-20.862-.667-28.516l-4.169-4.023 2.805-2.323c7.022-5.816 8.124-14.701 3.27-26.381-.585-1.408-.212-1.75 1.911-1.75 2.95 0 2.976-.047 4.968-8.75 1.61-7.032 2.078-6.712-6.892-4.697M105.388 88.98c-9.378 3.789-7.65 18.755 2.383 20.637 4.784.897 9.811-1.673 11.919-6.094 4.267-8.948-4.951-18.321-14.302-14.543M60.5 174c.34.55 1.068 1 1.618 1s.722-.45.382-1c-.34-.55-1.068-1-1.618-1s-.722.45-.382 1" fill-rule="evenodd"/>
<path fill="#0b64a4" stroke="#0b64a4" d="M134.5 72.207c-6.211 1.353-10.571 1.613-19.5 1.159-21.176-1.077-33.021 7.529-32.99 23.967.015 8.248 7.314 20.667 12.146 20.667.582 0 .741 1.193.379 2.84l-.623 2.839 6.294-1.317c12.185-2.551 21.044 1.676 21.044 10.041 0 10.445-16.5 14.148-26.301 5.901l-3.112-2.619-5.528 5.528-5.528 5.528 4.783 3.652c14.025 10.709 40.976 8.451 49.851-4.176 5.972-8.497 4.099-23.438-3.502-27.927-3.568-2.108-3.599-2.605-.323-5.182 6.258-4.923 8.317-15.945 4.41-23.608-1.1-2.158-2-4.023-2-4.145 0-.122 1.213-.365 2.696-.539 2.35-.275 2.929-1.088 4.499-6.316 2.497-8.309 2.507-8.299-6.695-6.293M106 88.581c-13.825 5.934-5.801 26.324 8.161 20.738 9.322-3.73 9.712-15.792.661-20.41-4.42-2.255-4.341-2.252-8.822-.328" fill-rule="evenodd"/>
</svg>